# xmcd
#
# Track frame offsets: 
#        150
#        14101
#        19706
#        31872
#        45086
#        48541
#        70144
#        76054
#        87255
#        104928
#        129264
#        144613
#        163171
#        173875
#
# Disc length: 2711 seconds
#
# Revision: 0
# Processed by: cddbd v1.5PL3 Copyright (c) Steve Scherf et al.
# Submitted via: ExactAudioCopy v0.95a3
#
DISCID=b50a950e
DTITLE=Uncle Tupelo - Live - 19901129 - Columbia, MO [CD2 of 2)
DYEAR=1990
DGENRE=Alternative Country
TTITLE0=That Year
TTITLE1=Country Home  [Neil Young] - partial
TTITLE2=True To Life
TTITLE3=D. Boon
TTITLE4=I've Been Working On The Railroad  [Traditional]
TTITLE5=Factory Belt
TTITLE6=Girl U Want [Devo] - partial
TTITLE7=Do Re Mi  [Woody Guthrie]
TTITLE8=Freak Scene  [Dinosaur Jr]
TTITLE9=Whiskey Bottle
TTITLE10=No Depression  [Carter Family]
TTITLE11=No Matter What  [Badfinger]
TTITLE12=I Got Drunk
TTITLE13=Graveyard Shift
EXTD=Recorded live at The Blue Note - Columbia, MO on November 29, 199
EXTD=0.\n\nSoundboard recording.
EXTT0=
EXTT1=
EXTT2=
EXTT3=
EXTT4=
EXTT5=
EXTT6=
EXTT7=
EXTT8=
EXTT9=
EXTT10=
EXTT11=
EXTT12=
EXTT13=
PLAYORDER=
